# Wavefront OBJ file automatically generated by Tiled2Unity

# Vertices (Count = 123)
v -9.6 -3.2 0
v -12.8 -3.2 0
v -12.8 0 0
v -9.6 0 0
v -16 -3.2 0
v -16 0 0
v -19.2 -3.2 0
v -19.2 0 0
v -22.4 -3.2 0
v -22.4 0 0
v 0 -6.4 0
v -3.2 -6.4 0
v -3.2 -3.2 0
v 0 -3.2 0
v -6.4 -6.4 0
v -6.4 -3.2 0
v -9.6 -6.4 0
v -12.8 -6.4 0
v -16 -6.4 0
v -19.2 -6.4 0
v -22.4 -6.4 0
v -25.6 -6.4 0
v -25.6 -3.2 0
v -28.8 -6.4 0
v -28.8 -3.2 0
v -32 -6.4 0
v -32 -3.2 0
v 0 -9.6 0
v -3.2 -9.6 0
v -6.4 -9.6 0
v -9.6 -9.6 0
v -12.8 -9.6 0
v -16 -9.6 0
v -19.2 -9.6 0
v -22.4 -9.6 0
v -25.6 -9.6 0
v -28.8 -9.6 0
v -32 -9.6 0
v 0 -12.8 0
v -3.2 -12.8 0
v -6.4 -12.8 0
v -9.6 -12.8 0
v -12.8 -12.8 0
v -16 -12.8 0
v -19.2 -12.8 0
v -22.4 -12.8 0
v -25.6 -12.8 0
v -28.8 -12.8 0
v -32 -12.8 0
v 0 -16 0
v -3.2 -16 0
v -6.4 -16 0
v -9.6 -16 0
v -12.8 -16 0
v -16 -16 0
v -19.2 -16 0
v -22.4 -16 0
v -25.6 -16 0
v -28.8 -16 0
v -32 -16 0
v 0 -19.2 0
v -3.2 -19.2 0
v -6.4 -19.2 0
v -9.6 -19.2 0
v -12.8 -19.2 0
v -16 -19.2 0
v -19.2 -19.2 0
v -22.4 -19.2 0
v -25.6 -19.2 0
v -28.8 -19.2 0
v -32 -19.2 0
v 0 -22.4 0
v -3.2 -22.4 0
v -6.4 -22.4 0
v -9.6 -22.4 0
v -12.8 -22.4 0
v -16 -22.4 0
v -19.2 -22.4 0
v -22.4 -22.4 0
v -25.6 -22.4 0
v -28.8 -22.4 0
v -32 -22.4 0
v 0 -25.6 0
v -3.2 -25.6 0
v -6.4 -25.6 0
v -9.6 -25.6 0
v -12.8 -25.6 0
v -16 -25.6 0
v -19.2 -25.6 0
v -22.4 -25.6 0
v -25.6 -25.6 0
v -28.8 -25.6 0
v -32 -25.6 0
v 0 -28.8 0
v -3.2 -28.8 0
v -6.4 -28.8 0
v -9.6 -28.8 0
v -12.8 -28.8 0
v -16 -28.8 0
v -19.2 -28.8 0
v -22.4 -28.8 0
v -25.6 -28.8 0
v -28.8 -28.8 0
v -32 -28.8 0
v -3.2 0 0
v 0 0 0
v -6.4 0 0
v -25.6 0 0
v -28.8 0 0
v -32 0 0
v 0 -32 0
v -3.2 -32 0
v -6.4 -32 0
v -9.6 -32 0
v -12.8 -32 0
v -16 -32 0
v -19.2 -32 0
v -22.4 -32 0
v -25.6 -32 0
v -28.8 -32 0
v -32 -32 0
v -12.8 -35.2 0
v -16 -35.2 0

# Texture cooridinates (Count = 196)
vt 0.8333401 0.4166768
vt 0.8888821 0.4166768
vt 0.8888821 0.4999898
vt 0.8333401 0.4999898
vt 0.8888957 0.4166768
vt 0.9444377 0.4166768
vt 0.9444377 0.4999898
vt 0.8888957 0.4999898
vt 0.7777846 0.4166768
vt 0.8333266 0.4166768
vt 0.8333266 0.4999898
vt 0.7777846 0.4999898
vt 0.9444512 0.4166768
vt 0.9999932 0.4166768
vt 0.9999932 0.4999898
vt 0.9444512 0.4999898
vt 0.7777846 0.3333435
vt 0.8333266 0.3333435
vt 0.8333266 0.4166565
vt 0.7777846 0.4166565
vt 0.8333401 0.3333435
vt 0.8888821 0.3333435
vt 0.8888821 0.4166565
vt 0.8333401 0.4166565
vt 0.8888957 0.3333435
vt 0.9444377 0.3333435
vt 0.9444377 0.4166565
vt 0.8888957 0.4166565
vt 0.9444512 0.3333435
vt 0.9999932 0.3333435
vt 0.9999932 0.4166565
vt 0.9444512 0.4166565
vt 0.7777846 0.2500102
vt 0.8333266 0.2500102
vt 0.8333266 0.3333232
vt 0.7777846 0.3333232
vt 0.8333401 0.2500102
vt 0.8888821 0.2500102
vt 0.8888821 0.3333232
vt 0.8333401 0.3333232
vt 0.8888957 0.2500102
vt 0.9444377 0.2500102
vt 0.9444377 0.3333232
vt 0.8888957 0.3333232
vt 0.9444512 0.2500102
vt 0.9999932 0.2500102
vt 0.9999932 0.3333232
vt 0.9444512 0.3333232
vt 0.7777846 0.1666768
vt 0.8333266 0.1666768
vt 0.8333266 0.2499898
vt 0.7777846 0.2499898
vt 0.8333401 0.1666768
vt 0.8888821 0.1666768
vt 0.8888821 0.2499898
vt 0.8333401 0.2499898
vt 0.8888957 0.1666768
vt 0.9444377 0.1666768
vt 0.9444377 0.2499898
vt 0.8888957 0.2499898
vt 0.9444512 0.1666768
vt 0.9999932 0.1666768
vt 0.9999932 0.2499898
vt 0.9444512 0.2499898
vt 6.781684E-06 0.5833435
vt 0.05554877 0.5833435
vt 0.05554877 0.6666565
vt 6.781684E-06 0.6666565
vt 0.05556234 0.5833435
vt 0.1111043 0.5833435
vt 0.1111043 0.6666565
vt 0.05556234 0.6666565
vt 0.1111179 0.5833435
vt 0.1666599 0.5833435
vt 0.1666599 0.6666565
vt 0.1111179 0.6666565
vt 6.781684E-06 0.5000101
vt 0.05554877 0.5000101
vt 0.05554877 0.5833231
vt 6.781684E-06 0.5833231
vt 0.1111179 0.5000101
vt 0.1666599 0.5000101
vt 0.1666599 0.5833231
vt 0.1111179 0.5833231
vt 6.781684E-06 0.4166768
vt 0.05554877 0.4166768
vt 0.05554877 0.4999898
vt 6.781684E-06 0.4999898
vt 0.05556234 0.4166768
vt 0.1111043 0.4166768
vt 0.1111043 0.4999898
vt 0.05556234 0.4999898
vt 0.05556234 0.5000101
vt 0.1111043 0.5000101
vt 0.1111043 0.5833231
vt 0.05556234 0.5833231
vt 0.1111179 0.4166768
vt 0.1666599 0.4166768
vt 0.1666599 0.4999898
vt 0.1111179 0.4999898
vt 0.1666735 0.4166768
vt 0.2222154 0.4166768
vt 0.2222154 0.4999898
vt 0.1666735 0.4999898
vt 0.222229 0.4166768
vt 0.277771 0.4166768
vt 0.277771 0.4999898
vt 0.222229 0.4999898
vt 0.3333401 0.5000101
vt 0.3888821 0.5000101
vt 0.3888821 0.5833231
vt 0.3333401 0.5833231
vt 0.1666735 0.3333435
vt 0.2222154 0.3333435
vt 0.2222154 0.4166565
vt 0.1666735 0.4166565
vt 0.222229 0.3333435
vt 0.277771 0.3333435
vt 0.277771 0.4166565
vt 0.222229 0.4166565
vt 0.222229 0.5833435
vt 0.277771 0.5833435
vt 0.277771 0.6666565
vt 0.222229 0.6666565
vt 0.3333401 0.7500102
vt 0.3888821 0.7500102
vt 0.3888821 0.8333232
vt 0.3333401 0.8333232
vt 0.3333401 0.6666769
vt 0.3888821 0.6666769
vt 0.3888821 0.7499899
vt 0.3333401 0.7499899
vt 0.222229 0.5000101
vt 0.277771 0.5000101
vt 0.277771 0.5833231
vt 0.222229 0.5833231
vt 0.1666735 0.7500102
vt 0.2222154 0.7500102
vt 0.2222154 0.8333232
vt 0.1666735 0.8333232
vt 0.6666734 0.08334351
vt 0.7222154 0.08334351
vt 0.7222154 0.1666565
vt 0.6666734 0.1666565
vt 0.722229 0.08334351
vt 0.777771 0.08334351
vt 0.777771 0.1666565
vt 0.722229 0.1666565
vt 0.7777846 0.08334351
vt 0.8333266 0.08334351
vt 0.8333266 0.1666565
vt 0.7777846 0.1666565
vt 0.1111179 0.7500102
vt 0.1666599 0.7500102
vt 0.1666599 0.8333232
vt 0.1111179 0.8333232
vt 0.1666735 0.6666769
vt 0.2222154 0.6666769
vt 0.2222154 0.7499899
vt 0.1666735 0.7499899
vt 0.6666734 1.019239E-05
vt 0.7222154 1.019239E-05
vt 0.7222154 0.08332318
vt 0.6666734 0.08332318
vt 0.722229 1.019239E-05
vt 0.777771 1.019239E-05
vt 0.777771 0.08332318
vt 0.722229 0.08332318
vt 0.7777846 1.019239E-05
vt 0.8333266 1.019239E-05
vt 0.8333266 0.08332318
vt 0.7777846 0.08332318
vt 0.1111179 0.6666769
vt 0.1666599 0.6666769
vt 0.1666599 0.7499899
vt 0.1111179 0.7499899
vt 0.3333401 0.9166768
vt 0.3888821 0.9166768
vt 0.3888821 0.9999898
vt 0.3333401 0.9999898
vt 0.5000068 0.1666768
vt 0.5555488 0.1666768
vt 0.5555488 0.2499898
vt 0.5000068 0.2499898
vt 0.4444512 0.08334351
vt 0.4999932 0.08334351
vt 0.4999932 0.1666565
vt 0.4444512 0.1666565
vt 0.5000068 0.08334351
vt 0.5555488 0.08334351
vt 0.5555488 0.1666565
vt 0.5000068 0.1666565
vt 1.953125E-06 0.9840019
vt 0.01599805 0.9840019
vt 0.01599805 0.999998
vt 1.953125E-06 0.999998

# Normal
vn 0 0 -1

# Groups (Count = 5)

g mesh_0001
f 1/1/1 2/2/1 3/3/1 4/4/1
f 2/1/1 5/2/1 6/3/1 3/4/1
f 5/1/1 7/2/1 8/3/1 6/4/1
f 7/5/1 9/6/1 10/7/1 8/8/1
f 11/9/1 12/10/1 13/11/1 14/12/1
f 12/1/1 15/2/1 16/3/1 13/4/1
f 15/1/1 17/2/1 1/3/1 16/4/1
f 17/1/1 18/2/1 2/3/1 1/4/1
f 18/5/1 19/6/1 5/7/1 2/8/1
f 19/1/1 20/2/1 7/3/1 5/4/1
f 20/1/1 21/2/1 9/3/1 7/4/1
f 21/1/1 22/2/1 23/3/1 9/4/1
f 22/5/1 24/6/1 25/7/1 23/8/1
f 24/13/1 26/14/1 27/15/1 25/16/1
f 28/17/1 29/18/1 12/19/1 11/20/1
f 29/21/1 30/22/1 15/23/1 12/24/1
f 30/21/1 31/22/1 17/23/1 15/24/1
f 31/21/1 32/22/1 18/23/1 17/24/1
f 32/21/1 33/22/1 19/23/1 18/24/1
f 33/21/1 34/22/1 20/23/1 19/24/1
f 34/21/1 35/22/1 21/23/1 20/24/1
f 35/21/1 36/22/1 22/23/1 21/24/1
f 36/25/1 37/26/1 24/27/1 22/28/1
f 37/29/1 38/30/1 26/31/1 24/32/1
f 39/33/1 40/34/1 29/35/1 28/36/1
f 40/37/1 41/38/1 30/39/1 29/40/1
f 41/37/1 42/38/1 31/39/1 30/40/1
f 42/21/1 43/22/1 32/23/1 31/24/1
f 43/21/1 44/22/1 33/23/1 32/24/1
f 44/21/1 45/22/1 34/23/1 33/24/1
f 45/25/1 46/26/1 35/27/1 34/28/1
f 46/25/1 47/26/1 36/27/1 35/28/1
f 47/25/1 48/26/1 37/27/1 36/28/1
f 48/29/1 49/30/1 38/31/1 37/32/1
f 50/17/1 51/18/1 40/19/1 39/20/1
f 51/21/1 52/22/1 41/23/1 40/24/1
f 52/21/1 53/22/1 42/23/1 41/24/1
f 53/37/1 54/38/1 43/39/1 42/40/1
f 54/37/1 55/38/1 44/39/1 43/40/1
f 55/37/1 56/38/1 45/39/1 44/40/1
f 56/41/1 57/42/1 46/43/1 45/44/1
f 57/21/1 58/22/1 47/23/1 46/24/1
f 58/25/1 59/26/1 48/27/1 47/28/1
f 59/29/1 60/30/1 49/31/1 48/32/1
f 61/17/1 62/18/1 51/19/1 50/20/1
f 62/37/1 63/38/1 52/39/1 51/40/1
f 63/37/1 64/38/1 53/39/1 52/40/1
f 64/37/1 65/38/1 54/39/1 53/40/1
f 65/41/1 66/42/1 55/43/1 54/44/1
f 66/25/1 67/26/1 56/27/1 55/28/1
f 67/25/1 68/26/1 57/27/1 56/28/1
f 68/25/1 69/26/1 58/27/1 57/28/1
f 69/25/1 70/26/1 59/27/1 58/28/1
f 70/29/1 71/30/1 60/31/1 59/32/1
f 72/17/1 73/18/1 62/19/1 61/20/1
f 73/37/1 74/38/1 63/39/1 62/40/1
f 74/41/1 75/42/1 64/43/1 63/44/1
f 75/25/1 76/26/1 65/27/1 64/28/1
f 76/25/1 77/26/1 66/27/1 65/28/1
f 77/25/1 78/26/1 67/27/1 66/28/1
f 78/41/1 79/42/1 68/43/1 67/44/1
f 79/41/1 80/42/1 69/43/1 68/44/1
f 80/25/1 81/26/1 70/27/1 69/28/1
f 81/29/1 82/30/1 71/31/1 70/32/1
f 83/33/1 84/34/1 73/35/1 72/36/1
f 84/37/1 85/38/1 74/39/1 73/40/1
f 85/41/1 86/42/1 75/43/1 74/44/1
f 86/41/1 87/42/1 76/43/1 75/44/1
f 87/41/1 88/42/1 77/43/1 76/44/1
f 88/41/1 89/42/1 78/43/1 77/44/1
f 89/37/1 90/38/1 79/39/1 78/40/1
f 90/41/1 91/42/1 80/43/1 79/44/1
f 91/41/1 92/42/1 81/43/1 80/44/1
f 92/45/1 93/46/1 82/47/1 81/48/1
f 94/49/1 95/50/1 84/51/1 83/52/1
f 95/53/1 96/54/1 85/55/1 84/56/1
f 96/53/1 97/54/1 86/55/1 85/56/1
f 97/53/1 98/54/1 87/55/1 86/56/1
f 98/53/1 99/54/1 88/55/1 87/56/1
f 99/53/1 100/54/1 89/55/1 88/56/1
f 100/53/1 101/54/1 90/55/1 89/56/1
f 101/53/1 102/54/1 91/55/1 90/56/1
f 102/57/1 103/58/1 92/59/1 91/60/1
f 103/61/1 104/62/1 93/63/1 92/64/1

g mesh_0002
f 14/65/1 13/66/1 105/67/1 106/68/1
f 13/69/1 16/70/1 107/71/1 105/72/1
f 16/69/1 1/70/1 4/71/1 107/72/1
f 1/69/1 2/70/1 3/71/1 4/72/1
f 2/69/1 5/70/1 6/71/1 3/72/1
f 5/69/1 7/70/1 8/71/1 6/72/1
f 7/65/1 9/66/1 10/67/1 8/68/1
f 9/69/1 23/70/1 108/71/1 10/72/1
f 23/69/1 25/70/1 109/71/1 108/72/1
f 25/73/1 27/74/1 110/75/1 109/76/1
f 11/77/1 12/78/1 13/79/1 14/80/1
f 20/77/1 21/78/1 9/79/1 7/80/1
f 24/81/1 26/82/1 27/83/1 25/84/1
f 28/77/1 29/78/1 12/79/1 11/80/1
f 34/77/1 35/78/1 21/79/1 20/80/1
f 37/81/1 38/82/1 26/83/1 24/84/1
f 39/77/1 40/78/1 29/79/1 28/80/1
f 45/77/1 46/78/1 35/79/1 34/80/1
f 48/81/1 49/82/1 38/83/1 37/84/1
f 50/77/1 51/78/1 40/79/1 39/80/1
f 56/85/1 57/86/1 46/87/1 45/88/1
f 58/89/1 59/90/1 48/91/1 47/92/1
f 59/73/1 60/74/1 49/75/1 48/76/1
f 61/77/1 62/78/1 51/79/1 50/80/1
f 70/81/1 71/82/1 60/83/1 59/84/1
f 72/77/1 73/78/1 62/79/1 61/80/1
f 81/81/1 82/82/1 71/83/1 70/84/1
f 83/77/1 84/78/1 73/79/1 72/80/1
f 92/81/1 93/82/1 82/83/1 81/84/1
f 94/77/1 95/78/1 84/79/1 83/80/1
f 103/81/1 104/82/1 93/83/1 92/84/1
f 111/85/1 112/86/1 95/87/1 94/88/1
f 112/89/1 113/90/1 96/91/1 95/92/1
f 113/89/1 114/90/1 97/91/1 96/92/1
f 114/89/1 115/90/1 98/91/1 97/92/1
f 115/93/1 116/94/1 99/95/1 98/96/1
f 116/89/1 117/90/1 100/91/1 99/92/1
f 117/89/1 118/90/1 101/91/1 100/92/1
f 118/89/1 119/90/1 102/91/1 101/92/1
f 119/89/1 120/90/1 103/91/1 102/92/1
f 120/97/1 121/98/1 104/99/1 103/100/1

g mesh_0003
f 14/101/1 13/102/1 105/103/1 106/104/1
f 13/105/1 16/106/1 107/107/1 105/108/1
f 2/109/1 5/110/1 6/111/1 3/112/1
f 11/113/1 12/114/1 13/115/1 14/116/1
f 12/117/1 15/118/1 16/119/1 13/120/1
f 22/121/1 24/122/1 25/123/1 23/124/1
f 24/125/1 26/126/1 27/127/1 25/128/1
f 28/129/1 29/130/1 12/131/1 11/132/1
f 36/133/1 37/134/1 24/135/1 22/136/1
f 62/137/1 63/138/1 52/139/1 51/140/1
f 63/141/1 64/142/1 53/143/1 52/144/1
f 64/145/1 65/146/1 54/147/1 53/148/1
f 65/149/1 66/150/1 55/151/1 54/152/1
f 66/153/1 67/154/1 56/155/1 55/156/1
f 73/157/1 74/158/1 63/159/1 62/160/1
f 74/161/1 75/162/1 64/163/1 63/164/1
f 75/165/1 76/166/1 65/167/1 64/168/1
f 76/169/1 77/170/1 66/171/1 65/172/1
f 77/173/1 78/174/1 67/175/1 66/176/1
f 83/129/1 84/130/1 73/131/1 72/132/1
f 92/125/1 93/126/1 82/127/1 81/128/1
f 115/177/1 116/178/1 99/179/1 98/180/1

g mesh_0004
f 53/181/1 54/182/1 43/183/1 42/184/1
f 63/185/1 64/186/1 53/187/1 52/188/1
f 64/189/1 65/190/1 54/191/1 53/192/1
f 65/185/1 66/186/1 55/187/1 54/188/1

g mesh_0005
f 14/193/1 13/194/1 105/195/1 106/196/1
f 13/193/1 16/194/1 107/195/1 105/196/1
f 16/193/1 1/194/1 4/195/1 107/196/1
f 1/193/1 2/194/1 3/195/1 4/196/1
f 2/193/1 5/194/1 6/195/1 3/196/1
f 5/193/1 7/194/1 8/195/1 6/196/1
f 7/193/1 9/194/1 10/195/1 8/196/1
f 9/193/1 23/194/1 108/195/1 10/196/1
f 23/193/1 25/194/1 109/195/1 108/196/1
f 25/193/1 27/194/1 110/195/1 109/196/1
f 11/193/1 12/194/1 13/195/1 14/196/1
f 12/193/1 15/194/1 16/195/1 13/196/1
f 56/193/1 57/194/1 46/195/1 45/196/1
f 58/193/1 59/194/1 48/195/1 47/196/1
f 59/193/1 60/194/1 49/195/1 48/196/1
f 63/193/1 64/194/1 53/195/1 52/196/1
f 64/193/1 65/194/1 54/195/1 53/196/1
f 65/193/1 66/194/1 55/195/1 54/196/1
f 74/193/1 75/194/1 64/195/1 63/196/1
f 75/193/1 76/194/1 65/195/1 64/196/1
f 76/193/1 77/194/1 66/195/1 65/196/1
f 111/193/1 112/194/1 95/195/1 94/196/1
f 112/193/1 113/194/1 96/195/1 95/196/1
f 113/193/1 114/194/1 97/195/1 96/196/1
f 114/193/1 115/194/1 98/195/1 97/196/1
f 116/193/1 117/194/1 100/195/1 99/196/1
f 117/193/1 118/194/1 101/195/1 100/196/1
f 118/193/1 119/194/1 102/195/1 101/196/1
f 119/193/1 120/194/1 103/195/1 102/196/1
f 120/193/1 121/194/1 104/195/1 103/196/1
f 122/193/1 123/194/1 116/195/1 115/196/1

